# xmcd
#
# Track frame offsets:
#	150
#	28555
#	49160
#	67899
#	90120
#	118808
#	143769
#	157714
#	207396
#	243495
#	275771
#	296466
#	305242
#	333626
#
# Disc length: 4735 seconds
#
# Revision: 0
# Processed by: cddbd v1.5.2PL0 Copyright (c) Steve Scherf et al.
# Submitted via: EZCDAudioConverter 2.1.7.1
#
DISCID=ca127d0e
DTITLE=V/A - Space, Energy and Light
DYEAR=1900
DGENRE=
TTITLE0=J.B. Banfi - Gang (For Rock Industry)
TTITLE1=Michael Garrison - To The Other Side Of The Sky
TTITLE2=Iasos - Lueena Coast
TTITLE3=Carl Matthews - As Above, So Below
TTITLE4=Tim Blake - Midnight
TTITLE5=Stratis - By Water
TTITLE6=Laurie Spiegel - Improvisation On A 'Concerto Generator'
TTITLE7=Mother Mallard's Portable Masterpiece Company - Ceres Motion
TTITLE8=Michael Stearns - In The Beginning
TTITLE9=Beverley Glenn-Copeland - Ever New
TTITLE10=Richard Pinhas     - Sur Le Thème Des Bene Gesserit VII
TTITLE11=Todd Dockstader - Piece #1
TTITLE12=Kevin Braheny - Ancient Stars
TTITLE13=Steven Halpern - Starborn Suite
EXTD=
EXTT0=
EXTT1=
EXTT2=
EXTT3=
EXTT4=
EXTT5=
EXTT6=
EXTT7=
EXTT8=
EXTT9=
EXTT10=
EXTT11=
EXTT12=
EXTT13=
PLAYORDER=
